<svg width="36" height="38" viewBox="0 0 36 38" fill="none" xmlns="http://www.w3.org/2000/svg">
<path d="M25.1631 6.24881C24.9394 6.03951 24.6732 5.87337 24.3799 5.76C24.0866 5.64663 23.772 5.58826 23.4543 5.58826C23.1366 5.58826 22.822 5.64663 22.5287 5.76C22.2355 5.87337 21.9693 6.03951 21.7455 6.24881L9.71191 17.4145C9.48633 17.6221 9.30728 17.8691 9.18509 18.1412C9.06291 18.4133 9 18.7052 9 19C9 19.2948 9.06291 19.5867 9.18509 19.8588C9.30728 20.131 9.48633 20.3779 9.71191 20.5855L21.7455 31.7512C21.9693 31.9605 22.2355 32.1267 22.5287 32.24C22.822 32.3534 23.1366 32.4118 23.4543 32.4118C23.772 32.4118 24.0866 32.3534 24.3799 32.24C24.6732 32.1267 24.9394 31.9605 25.1631 31.7512C25.3887 31.5436 25.5677 31.2966 25.6899 31.0245C25.8121 30.7524 25.875 30.4605 25.875 30.1657C25.875 29.8709 25.8121 29.579 25.6899 29.3069C25.5677 29.0348 25.3887 28.7878 25.1631 28.5802L14.8142 19L25.1631 9.41987C25.3887 9.21227 25.5677 8.96528 25.6899 8.69315C25.8121 8.42103 25.875 8.12914 25.875 7.83434C25.875 7.53954 25.8121 7.24766 25.6899 6.97553C25.5677 6.7034 25.3887 6.45641 25.1631 6.24881Z" fill="#2727C4"/>
</svg>
